<?xml version="1.0" encoding="UTF-8" standalone="yes"?><svg xmlns="http://www.w3.org/2000/svg" xmlns:xlink="http://www.w3.org/1999/xlink" height="78pt" style="width:315px;height:78px;" version="1.1" viewBox="0 0 315 78" width="315pt"><defs><filter height="300%" id="f1" width="300%" x="-1" y="-1"><feGaussianBlur result="blurOut" stdDeviation="2"/><feColorMatrix in="blurOut" result="blurOut2" type="matrix" values="0 0 0 0 0 0 0 0 0 0 0 0 0 0 0 0 0 0 .4 0"/><feOffset dx="4" dy="4" in="blurOut2" result="blurOut3"/><feBlend in="SourceGraphic" in2="blurOut3" mode="normal"/></filter></defs><g><rect fill="#FEFECE" filter="url(#f1)" height="60.8046875" style="stroke: #A80036; stroke-width: 1.5;" width="134.0" x="6.0" y="8.5"/><ellipse cx="26.85" cy="24.5" fill="#ADD1B2" rx="11.0" ry="11.0" style="stroke: #A80036; stroke-width: 1.0;"/><path d="M30.2563,26.4688 C29.5375,27.1406 28.2406,28.3125 26.4906,28.3125 C24.2719,28.3125 23.3031,26.375 23.3031,24.4219 C23.3031,22.0313 24.7875,20.7656 26.4281,20.7656 C28.4438,20.7656 28.6625,22.2813 28.8344,23.375 L30.2563,23.1875 C30.1625,22.6094 30.0844,22.0313 30.0844,21.0625 C30.0844,20.3906 30.1313,19.8438 30.1625,19.4219 L28.7563,19.4219 L28.6469,20.375 C28.0531,19.8438 27.4125,19.2969 26.1938,19.2969 C24.1469,19.2969 21.7406,21.125 21.7406,24.4375 C21.7406,27.375 23.5063,29.7656 26.5063,29.7656 C28.9438,29.7656 30.6469,28.1406 31.2406,27.5625 L30.2563,26.4688 Z "/><text fill="#000000" font-size="12" lengthAdjust="spacingAndGlyphs" textLength="89.0" x="42.15" y="29.515625">CsvExpression</text><line style="stroke: #A80036; stroke-width: 1.5;" x1="6.0" x2="140.0" y1="40.5" y2="40.5"/><text fill="#000000" font-size="11" lengthAdjust="spacingAndGlyphs" textLength="122.0" x="12.0" y="55.5">re.RegexObject regex</text><line style="stroke: #A80036; stroke-width: 1.5;" x1="6.0" x2="140.0" y1="61.3046875" y2="61.3046875"/><rect fill="#FEFECE" filter="url(#f1)" height="48.0" style="stroke: #A80036; stroke-width: 1.5;" width="131.0" x="175.75" y="15.0"/><ellipse cx="190.75" cy="31.0" fill="#ADD1B2" rx="11.0" ry="11.0" style="stroke: #A80036; stroke-width: 1.0;"/><path d="M194.1563,32.9688 C193.4375,33.6406 192.1406,34.8125 190.3906,34.8125 C188.1719,34.8125 187.2031,32.875 187.2031,30.9219 C187.2031,28.5313 188.6875,27.2656 190.3281,27.2656 C192.3438,27.2656 192.5625,28.7813 192.7344,29.875 L194.1563,29.6875 C194.0625,29.1094 193.9844,28.5313 193.9844,27.5625 C193.9844,26.8906 194.0313,26.3438 194.0625,25.9219 L192.6563,25.9219 L192.5469,26.875 C191.9531,26.3438 191.3125,25.7969 190.0938,25.7969 C188.0469,25.7969 185.6406,27.625 185.6406,30.9375 C185.6406,33.875 187.4063,36.2656 190.4063,36.2656 C192.8438,36.2656 194.5469,34.6406 195.1406,34.0625 L194.1563,32.9688 Z "/><text fill="#000000" font-size="12" lengthAdjust="spacingAndGlyphs" textLength="99.0" x="204.75" y="36.015625">ExpressionBase</text><line style="stroke: #A80036; stroke-width: 1.5;" x1="175.75" x2="306.75" y1="47.0" y2="47.0"/><line style="stroke: #A80036; stroke-width: 1.5;" x1="175.75" x2="306.75" y1="55.0" y2="55.0"/><path d="M140.266,39 C145.338,39 150.41,39 155.483,39 " fill="none" style="stroke: #A80036; stroke-width: 1.0;"/><polygon fill="none" points="155.68,31.999899999999997,175.68,39.0,155.68,45.9999,155.68,31.999899999999997" style="stroke: #A80036; stroke-width: 1.0;"/></g></svg>