<?xml version="1.0" encoding="UTF-8" standalone="yes"?><svg xmlns="http://www.w3.org/2000/svg" xmlns:xlink="http://www.w3.org/1999/xlink" height="173pt" style="width:173px;height:173px;" version="1.1" viewBox="0 0 173 173" width="173pt"><defs><filter height="300%" id="f1" width="300%" x="-1" y="-1"><feGaussianBlur result="blurOut" stdDeviation="2"/><feColorMatrix in="blurOut" result="blurOut2" type="matrix" values="0 0 0 0 0 0 0 0 0 0 0 0 0 0 0 0 0 0 .4 0"/><feOffset dx="4" dy="4" in="blurOut2" result="blurOut3"/><feBlend in="SourceGraphic" in2="blurOut3" mode="normal"/></filter></defs><g><rect fill="#FEFECE" filter="url(#f1)" height="48.0" style="stroke: #A80036; stroke-width: 1.5;" width="124.0" x="23.5" y="8.0"/><ellipse cx="38.5" cy="24.0" fill="#ADD1B2" rx="11.0" ry="11.0" style="stroke: #A80036; stroke-width: 1.0;"/><path d="M41.9063,25.9688 C41.1875,26.6406 39.8906,27.8125 38.1406,27.8125 C35.9219,27.8125 34.9531,25.875 34.9531,23.9219 C34.9531,21.5313 36.4375,20.2656 38.0781,20.2656 C40.0938,20.2656 40.3125,21.7813 40.4844,22.875 L41.9063,22.6875 C41.8125,22.1094 41.7344,21.5313 41.7344,20.5625 C41.7344,19.8906 41.7813,19.3438 41.8125,18.9219 L40.4063,18.9219 L40.2969,19.875 C39.7031,19.3438 39.0625,18.7969 37.8438,18.7969 C35.7969,18.7969 33.3906,20.625 33.3906,23.9375 C33.3906,26.875 35.1563,29.2656 38.1563,29.2656 C40.5938,29.2656 42.2969,27.6406 42.8906,27.0625 L41.9063,25.9688 Z "/><text fill="#000000" font-size="12" lengthAdjust="spacingAndGlyphs" textLength="92.0" x="52.5" y="29.015625">BaseConverter</text><line style="stroke: #A80036; stroke-width: 1.5;" x1="23.5" x2="147.5" y1="40.0" y2="40.0"/><line style="stroke: #A80036; stroke-width: 1.5;" x1="23.5" x2="147.5" y1="48.0" y2="48.0"/><rect fill="#FEFECE" filter="url(#f1)" height="48.0" style="stroke: #A80036; stroke-width: 1.5;" width="159.0" x="5.75" y="116.0"/><ellipse cx="20.75" cy="132.0" fill="#ADD1B2" rx="11.0" ry="11.0" style="stroke: #A80036; stroke-width: 1.0;"/><path d="M24.1563,133.9688 C23.4375,134.6406 22.1406,135.8125 20.3906,135.8125 C18.1719,135.8125 17.2031,133.875 17.2031,131.9219 C17.2031,129.5313 18.6875,128.2656 20.3281,128.2656 C22.3438,128.2656 22.5625,129.7813 22.7344,130.875 L24.1563,130.6875 C24.0625,130.1094 23.9844,129.5313 23.9844,128.5625 C23.9844,127.8906 24.0313,127.3438 24.0625,126.9219 L22.6563,126.9219 L22.5469,127.875 C21.9531,127.3438 21.3125,126.7969 20.0938,126.7969 C18.0469,126.7969 15.6406,128.625 15.6406,131.9375 C15.6406,134.875 17.4063,137.2656 20.4063,137.2656 C22.8438,137.2656 24.5469,135.6406 25.1406,135.0625 L24.1563,133.9688 Z "/><text fill="#000000" font-size="12" lengthAdjust="spacingAndGlyphs" textLength="127.0" x="34.75" y="137.015625">IperfbinaryConverter</text><line style="stroke: #A80036; stroke-width: 1.5;" x1="5.75" x2="164.75" y1="148.0" y2="148.0"/><line style="stroke: #A80036; stroke-width: 1.5;" x1="5.75" x2="164.75" y1="156.0" y2="156.0"/><path d="M85,76.0236 C85,89.5792 85,104.0381 85,115.6784 " fill="none" style="stroke: #A80036; stroke-width: 1.0;"/><polygon fill="none" points="78.0001,76.0005,85.0,56.0,92.0001,76.0004,78.0001,76.0005" style="stroke: #A80036; stroke-width: 1.0;"/></g></svg>