<?xml version="1.0" encoding="UTF-8" standalone="yes"?><svg xmlns="http://www.w3.org/2000/svg" xmlns:xlink="http://www.w3.org/1999/xlink" height="231pt" style="width:115px;height:231px;" version="1.1" viewBox="0 0 115 231" width="115pt"><defs><filter height="300%" id="f1" width="300%" x="-1" y="-1"><feGaussianBlur result="blurOut" stdDeviation="2"/><feColorMatrix in="blurOut" result="blurOut2" type="matrix" values="0 0 0 0 0 0 0 0 0 0 0 0 0 0 0 0 0 0 .4 0"/><feOffset dx="4" dy="4" in="blurOut2" result="blurOut3"/><feBlend in="SourceGraphic" in2="blurOut3" mode="normal"/></filter></defs><g><rect fill="#FEFECE" filter="url(#f1)" height="214.4609375" style="stroke: #A80036; stroke-width: 1.5;" width="101.0" x="5.75" y="8.0"/><ellipse cx="20.75" cy="24.0" fill="#ADD1B2" rx="11.0" ry="11.0" style="stroke: #A80036; stroke-width: 1.0;"/><path d="M24.1563,25.9688 C23.4375,26.6406 22.1406,27.8125 20.3906,27.8125 C18.1719,27.8125 17.2031,25.875 17.2031,23.9219 C17.2031,21.5313 18.6875,20.2656 20.3281,20.2656 C22.3438,20.2656 22.5625,21.7813 22.7344,22.875 L24.1563,22.6875 C24.0625,22.1094 23.9844,21.5313 23.9844,20.5625 C23.9844,19.8906 24.0313,19.3438 24.0625,18.9219 L22.6563,18.9219 L22.5469,19.875 C21.9531,19.3438 21.3125,18.7969 20.0938,18.7969 C18.0469,18.7969 15.6406,20.625 15.6406,23.9375 C15.6406,26.875 17.4063,29.2656 20.4063,29.2656 C22.8438,29.2656 24.5469,27.6406 25.1406,27.0625 L24.1563,25.9688 Z "/><text fill="#000000" font-size="12" lengthAdjust="spacingAndGlyphs" textLength="69.0" x="34.75" y="29.015625">ParserKeys</text><line style="stroke: #A80036; stroke-width: 1.5;" x1="5.75" x2="106.75" y1="40.0" y2="40.0"/><text fill="#000000" font-size="11" lengthAdjust="spacingAndGlyphs" textLength="28.0" x="11.75" y="55.0">units</text><text fill="#000000" font-size="11" lengthAdjust="spacingAndGlyphs" textLength="37.0" x="11.75" y="67.8046875">thread</text><text fill="#000000" font-size="11" lengthAdjust="spacingAndGlyphs" textLength="27.0" x="11.75" y="80.609375">start</text><text fill="#000000" font-size="11" lengthAdjust="spacingAndGlyphs" textLength="21.0" x="11.75" y="93.4140625">end</text><text fill="#000000" font-size="11" lengthAdjust="spacingAndGlyphs" textLength="46.0" x="11.75" y="106.21875">transfer</text><text fill="#000000" font-size="11" lengthAdjust="spacingAndGlyphs" textLength="58.0" x="11.75" y="119.0234375">bandwidth</text><text fill="#000000" font-size="11" lengthAdjust="spacingAndGlyphs" textLength="61.0" x="11.75" y="131.828125">timestamp</text><text fill="#000000" font-size="11" lengthAdjust="spacingAndGlyphs" textLength="56.0" x="11.75" y="144.6328125">sender_ip</text><text fill="#000000" font-size="11" lengthAdjust="spacingAndGlyphs" textLength="69.0" x="11.75" y="157.4375">sender_port</text><text fill="#000000" font-size="11" lengthAdjust="spacingAndGlyphs" textLength="62.0" x="11.75" y="170.2421875">receiver_ip</text><text fill="#000000" font-size="11" lengthAdjust="spacingAndGlyphs" textLength="75.0" x="11.75" y="183.046875">receiver_port</text><text fill="#000000" font-size="11" lengthAdjust="spacingAndGlyphs" textLength="39.0" x="11.75" y="195.8515625">human</text><text fill="#000000" font-size="11" lengthAdjust="spacingAndGlyphs" textLength="19.0" x="11.75" y="208.65625">csv</text><line style="stroke: #A80036; stroke-width: 1.5;" x1="5.75" x2="106.75" y1="214.4609375" y2="214.4609375"/></g></svg>