<?xml version="1.0" encoding="UTF-8" standalone="yes"?><svg xmlns="http://www.w3.org/2000/svg" xmlns:xlink="http://www.w3.org/1999/xlink" height="90pt" style="width:280px;height:90px;" version="1.1" viewBox="0 0 280 90" width="280pt"><defs><filter height="300%" id="f1" width="300%" x="-1" y="-1"><feGaussianBlur result="blurOut" stdDeviation="2"/><feColorMatrix in="blurOut" result="blurOut2" type="matrix" values="0 0 0 0 0 0 0 0 0 0 0 0 0 0 0 0 0 0 .4 0"/><feOffset dx="4" dy="4" in="blurOut2" result="blurOut3"/><feBlend in="SourceGraphic" in2="blurOut3" mode="normal"/></filter></defs><g><rect fill="#FEFECE" filter="url(#f1)" height="73.609375" style="stroke: #A80036; stroke-width: 1.5;" width="134.0" x="6.0" y="8.0"/><ellipse cx="22.35" cy="24.0" fill="#ADD1B2" rx="11.0" ry="11.0" style="stroke: #A80036; stroke-width: 1.0;"/><path d="M25.7563,25.9688 C25.0375,26.6406 23.7406,27.8125 21.9906,27.8125 C19.7719,27.8125 18.8031,25.875 18.8031,23.9219 C18.8031,21.5313 20.2875,20.2656 21.9281,20.2656 C23.9438,20.2656 24.1625,21.7813 24.3344,22.875 L25.7563,22.6875 C25.6625,22.1094 25.5844,21.5313 25.5844,20.5625 C25.5844,19.8906 25.6313,19.3438 25.6625,18.9219 L24.2563,18.9219 L24.1469,19.875 C23.5531,19.3438 22.9125,18.7969 21.6938,18.7969 C19.6469,18.7969 17.2406,20.625 17.2406,23.9375 C17.2406,26.875 19.0063,29.2656 22.0063,29.2656 C24.4438,29.2656 26.1469,27.6406 26.7406,27.0625 L25.7563,25.9688 Z "/><text fill="#000000" font-size="12" lengthAdjust="spacingAndGlyphs" textLength="99.0" x="36.65" y="29.015625">ExpressionBase</text><line style="stroke: #A80036; stroke-width: 1.5;" x1="6.0" x2="140.0" y1="40.0" y2="40.0"/><text fill="#000000" font-size="11" lengthAdjust="spacingAndGlyphs" textLength="101.0" x="12.0" y="55.0">String expression</text><text fill="#000000" font-size="11" lengthAdjust="spacingAndGlyphs" textLength="122.0" x="12.0" y="67.8046875">re.RegexObject regex</text><line style="stroke: #A80036; stroke-width: 1.5;" x1="6.0" x2="140.0" y1="73.609375" y2="73.609375"/><rect fill="#FEFECE" filter="url(#f1)" height="48.0" style="stroke: #A80036; stroke-width: 1.5;" width="96.0" x="175.0" y="21.0"/><ellipse cx="190.0" cy="37.0" fill="#ADD1B2" rx="11.0" ry="11.0" style="stroke: #A80036; stroke-width: 1.0;"/><path d="M193.4063,38.9688 C192.6875,39.6406 191.3906,40.8125 189.6406,40.8125 C187.4219,40.8125 186.4531,38.875 186.4531,36.9219 C186.4531,34.5313 187.9375,33.2656 189.5781,33.2656 C191.5938,33.2656 191.8125,34.7813 191.9844,35.875 L193.4063,35.6875 C193.3125,35.1094 193.2344,34.5313 193.2344,33.5625 C193.2344,32.8906 193.2813,32.3438 193.3125,31.9219 L191.9063,31.9219 L191.7969,32.875 C191.2031,32.3438 190.5625,31.7969 189.3438,31.7969 C187.2969,31.7969 184.8906,33.625 184.8906,36.9375 C184.8906,39.875 186.6563,42.2656 189.6563,42.2656 C192.0938,42.2656 193.7969,40.6406 194.3906,40.0625 L193.4063,38.9688 Z "/><text fill="#000000" font-size="12" lengthAdjust="spacingAndGlyphs" textLength="64.0" x="204.0" y="42.015625">BaseClass</text><line style="stroke: #A80036; stroke-width: 1.5;" x1="175.0" x2="271.0" y1="53.0" y2="53.0"/><line style="stroke: #A80036; stroke-width: 1.5;" x1="175.0" x2="271.0" y1="61.0" y2="61.0"/><path d="M140.09,45 C144.963,45 149.836,45 154.709,45 " fill="none" style="stroke: #A80036; stroke-width: 1.0;"/><polygon fill="none" points="154.744,37.9999,174.744,45.0,154.744,51.9999,154.744,37.9999" style="stroke: #A80036; stroke-width: 1.0;"/></g></svg>