<?xml version="1.0" encoding="UTF-8" standalone="yes"?><svg xmlns="http://www.w3.org/2000/svg" xmlns:xlink="http://www.w3.org/1999/xlink" height="206pt" style="width:275px;height:206px;" version="1.1" viewBox="0 0 275 206" width="275pt"><defs><filter height="300%" id="f1" width="300%" x="-1" y="-1"><feGaussianBlur result="blurOut" stdDeviation="2"/><feColorMatrix in="blurOut" result="blurOut2" type="matrix" values="0 0 0 0 0 0 0 0 0 0 0 0 0 0 0 0 0 0 .4 0"/><feOffset dx="4" dy="4" in="blurOut2" result="blurOut3"/><feBlend in="SourceGraphic" in2="blurOut3" mode="normal"/></filter></defs><g><rect fill="#FEFECE" filter="url(#f1)" height="188.8515625" style="stroke: #A80036; stroke-width: 1.5;" width="129.0" x="5.75" y="8.5"/><ellipse cx="33.35" cy="24.5" fill="#ADD1B2" rx="11.0" ry="11.0" style="stroke: #A80036; stroke-width: 1.0;"/><path d="M36.7563,26.4688 C36.0375,27.1406 34.7406,28.3125 32.9906,28.3125 C30.7719,28.3125 29.8031,26.375 29.8031,24.4219 C29.8031,22.0313 31.2875,20.7656 32.9281,20.7656 C34.9438,20.7656 35.1625,22.2813 35.3344,23.375 L36.7563,23.1875 C36.6625,22.6094 36.5844,22.0313 36.5844,21.0625 C36.5844,20.3906 36.6313,19.8438 36.6625,19.4219 L35.2563,19.4219 L35.1469,20.375 C34.5531,19.8438 33.9125,19.2969 32.6938,19.2969 C30.6469,19.2969 28.2406,21.125 28.2406,24.4375 C28.2406,27.375 30.0063,29.7656 33.0063,29.7656 C35.4438,29.7656 37.1469,28.1406 37.7406,27.5625 L36.7563,26.4688 Z "/><text fill="#000000" font-size="12" lengthAdjust="spacingAndGlyphs" textLength="69.0" x="50.15" y="29.515625">IperfParser</text><line style="stroke: #A80036; stroke-width: 1.5;" x1="5.75" x2="134.75" y1="40.5" y2="40.5"/><text fill="#000000" font-size="11" lengthAdjust="spacingAndGlyphs" textLength="65.0" x="11.75" y="55.5">bandwidths</text><text fill="#000000" font-size="11" lengthAdjust="spacingAndGlyphs" textLength="32.0" x="11.75" y="68.3046875">regex</text><text fill="#000000" font-size="11" lengthAdjust="spacingAndGlyphs" textLength="49.0" x="11.75" y="81.109375">intervals</text><text fill="#000000" font-size="11" lengthAdjust="spacingAndGlyphs" textLength="62.0" x="11.75" y="93.9140625">conversion</text><line style="stroke: #A80036; stroke-width: 1.5;" x1="5.75" x2="134.75" y1="99.71875" y2="99.71875"/><text fill="#000000" font-size="11" lengthAdjust="spacingAndGlyphs" textLength="117.0" x="11.75" y="114.71875">filename(basename)</text><text fill="#000000" font-size="11" lengthAdjust="spacingAndGlyphs" textLength="38.0" x="11.75" y="127.5234375">reset()</text><text fill="#000000" font-size="11" lengthAdjust="spacingAndGlyphs" textLength="66.0" x="11.75" y="140.328125">pipe(target)</text><text fill="#000000" font-size="11" lengthAdjust="spacingAndGlyphs" textLength="67.0" x="11.75" y="153.1328125">search(line)</text><text fill="#000000" font-size="11" lengthAdjust="spacingAndGlyphs" textLength="71.0" x="11.75" y="165.9375">__call__(line)</text><text fill="#000000" font-size="11" lengthAdjust="spacingAndGlyphs" textLength="101.0" x="11.75" y="178.7421875">bandwidth(match)</text><text fill="#000000" font-size="11" lengthAdjust="spacingAndGlyphs" textLength="69.0" x="11.75" y="191.546875">valid(match)</text><rect fill="#FEFECE" filter="url(#f1)" height="48.0" style="stroke: #A80036; stroke-width: 1.5;" width="96.0" x="170.0" y="79.0"/><ellipse cx="185.0" cy="95.0" fill="#ADD1B2" rx="11.0" ry="11.0" style="stroke: #A80036; stroke-width: 1.0;"/><path d="M188.4063,96.9688 C187.6875,97.6406 186.3906,98.8125 184.6406,98.8125 C182.4219,98.8125 181.4531,96.875 181.4531,94.9219 C181.4531,92.5313 182.9375,91.2656 184.5781,91.2656 C186.5938,91.2656 186.8125,92.7813 186.9844,93.875 L188.4063,93.6875 C188.3125,93.1094 188.2344,92.5313 188.2344,91.5625 C188.2344,90.8906 188.2813,90.3438 188.3125,89.9219 L186.9063,89.9219 L186.7969,90.875 C186.2031,90.3438 185.5625,89.7969 184.3438,89.7969 C182.2969,89.7969 179.8906,91.625 179.8906,94.9375 C179.8906,97.875 181.6563,100.2656 184.6563,100.2656 C187.0938,100.2656 188.7969,98.6406 189.3906,98.0625 L188.4063,96.9688 Z "/><text fill="#000000" font-size="12" lengthAdjust="spacingAndGlyphs" textLength="64.0" x="199.0" y="100.015625">BaseClass</text><line style="stroke: #A80036; stroke-width: 1.5;" x1="170.0" x2="266.0" y1="111.0" y2="111.0"/><line style="stroke: #A80036; stroke-width: 1.5;" x1="170.0" x2="266.0" y1="119.0" y2="119.0"/><path d="M134.461,103 C139.509,103 144.557,103 149.604,103 " fill="none" style="stroke: #A80036; stroke-width: 1.0;"/><polygon fill="none" points="149.704,96.0,169.704,103.0,149.704,109.9999,149.704,96.0" style="stroke: #A80036; stroke-width: 1.0;"/></g></svg>