<?xml version="1.0" encoding="UTF-8" standalone="yes"?><svg xmlns="http://www.w3.org/2000/svg" xmlns:xlink="http://www.w3.org/1999/xlink" height="103pt" style="width:325px;height:103px;" version="1.1" viewBox="0 0 325 103" width="325pt"><defs><filter height="300%" id="f1" width="300%" x="-1" y="-1"><feGaussianBlur result="blurOut" stdDeviation="2"/><feColorMatrix in="blurOut" result="blurOut2" type="matrix" values="0 0 0 0 0 0 0 0 0 0 0 0 0 0 0 0 0 0 .4 0"/><feOffset dx="4" dy="4" in="blurOut2" result="blurOut3"/><feBlend in="SourceGraphic" in2="blurOut3" mode="normal"/></filter></defs><g><rect fill="#FEFECE" filter="url(#f1)" height="86.4140625" style="stroke: #A80036; stroke-width: 1.5;" width="144.0" x="6.0" y="8.0"/><ellipse cx="21.0" cy="24.0" fill="#ADD1B2" rx="11.0" ry="11.0" style="stroke: #A80036; stroke-width: 1.0;"/><path d="M24.4063,25.9688 C23.6875,26.6406 22.3906,27.8125 20.6406,27.8125 C18.4219,27.8125 17.4531,25.875 17.4531,23.9219 C17.4531,21.5313 18.9375,20.2656 20.5781,20.2656 C22.5938,20.2656 22.8125,21.7813 22.9844,22.875 L24.4063,22.6875 C24.3125,22.1094 24.2344,21.5313 24.2344,20.5625 C24.2344,19.8906 24.2813,19.3438 24.3125,18.9219 L22.9063,18.9219 L22.7969,19.875 C22.2031,19.3438 21.5625,18.7969 20.3438,18.7969 C18.2969,18.7969 15.8906,20.625 15.8906,23.9375 C15.8906,26.875 17.6563,29.2656 20.6563,29.2656 C23.0938,29.2656 24.7969,27.6406 25.3906,27.0625 L24.4063,25.9688 Z "/><text fill="#000000" font-size="12" lengthAdjust="spacingAndGlyphs" textLength="112.0" x="35.0" y="29.015625">HumanExpression</text><line style="stroke: #A80036; stroke-width: 1.5;" x1="6.0" x2="150.0" y1="40.0" y2="40.0"/><text fill="#000000" font-size="11" lengthAdjust="spacingAndGlyphs" textLength="122.0" x="12.0" y="55.0">String thread_column</text><text fill="#000000" font-size="11" lengthAdjust="spacingAndGlyphs" textLength="101.0" x="12.0" y="67.8046875">String expression</text><text fill="#000000" font-size="11" lengthAdjust="spacingAndGlyphs" textLength="122.0" x="12.0" y="80.609375">re.RegexObject regex</text><line style="stroke: #A80036; stroke-width: 1.5;" x1="6.0" x2="150.0" y1="86.4140625" y2="86.4140625"/><rect fill="#FEFECE" filter="url(#f1)" height="48.0" style="stroke: #A80036; stroke-width: 1.5;" width="131.0" x="185.75" y="27.0"/><ellipse cx="200.75" cy="43.0" fill="#ADD1B2" rx="11.0" ry="11.0" style="stroke: #A80036; stroke-width: 1.0;"/><path d="M204.1563,44.9688 C203.4375,45.6406 202.1406,46.8125 200.3906,46.8125 C198.1719,46.8125 197.2031,44.875 197.2031,42.9219 C197.2031,40.5313 198.6875,39.2656 200.3281,39.2656 C202.3438,39.2656 202.5625,40.7813 202.7344,41.875 L204.1563,41.6875 C204.0625,41.1094 203.9844,40.5313 203.9844,39.5625 C203.9844,38.8906 204.0313,38.3438 204.0625,37.9219 L202.6563,37.9219 L202.5469,38.875 C201.9531,38.3438 201.3125,37.7969 200.0938,37.7969 C198.0469,37.7969 195.6406,39.625 195.6406,42.9375 C195.6406,45.875 197.4063,48.2656 200.4063,48.2656 C202.8438,48.2656 204.5469,46.6406 205.1406,46.0625 L204.1563,44.9688 Z "/><text fill="#000000" font-size="12" lengthAdjust="spacingAndGlyphs" textLength="99.0" x="214.75" y="48.015625">ExpressionBase</text><line style="stroke: #A80036; stroke-width: 1.5;" x1="185.75" x2="316.75" y1="59.0" y2="59.0"/><line style="stroke: #A80036; stroke-width: 1.5;" x1="185.75" x2="316.75" y1="67.0" y2="67.0"/><path d="M150.309,51 C155.379,51 160.449,51 165.519,51 " fill="none" style="stroke: #A80036; stroke-width: 1.0;"/><polygon fill="none" points="165.708,43.9999,185.708,51.0,165.708,57.9999,165.708,43.9999" style="stroke: #A80036; stroke-width: 1.0;"/></g></svg>