<?xml version="1.0" encoding="UTF-8" standalone="yes"?><svg xmlns="http://www.w3.org/2000/svg" xmlns:xlink="http://www.w3.org/1999/xlink" height="173pt" style="width:163px;height:173px;" version="1.1" viewBox="0 0 163 173" width="163pt"><defs><filter height="300%" id="f1" width="300%" x="-1" y="-1"><feGaussianBlur result="blurOut" stdDeviation="2"/><feColorMatrix in="blurOut" result="blurOut2" type="matrix" values="0 0 0 0 0 0 0 0 0 0 0 0 0 0 0 0 0 0 .4 0"/><feOffset dx="4" dy="4" in="blurOut2" result="blurOut3"/><feBlend in="SourceGraphic" in2="blurOut3" mode="normal"/></filter></defs><g><rect fill="#FEFECE" filter="url(#f1)" height="48.0" style="stroke: #A80036; stroke-width: 1.5;" width="121.0" x="19.75" y="8.0"/><ellipse cx="34.75" cy="24.0" fill="#ADD1B2" rx="11.0" ry="11.0" style="stroke: #A80036; stroke-width: 1.0;"/><path d="M38.1563,25.9688 C37.4375,26.6406 36.1406,27.8125 34.3906,27.8125 C32.1719,27.8125 31.2031,25.875 31.2031,23.9219 C31.2031,21.5313 32.6875,20.2656 34.3281,20.2656 C36.3438,20.2656 36.5625,21.7813 36.7344,22.875 L38.1563,22.6875 C38.0625,22.1094 37.9844,21.5313 37.9844,20.5625 C37.9844,19.8906 38.0313,19.3438 38.0625,18.9219 L36.6563,18.9219 L36.5469,19.875 C35.9531,19.3438 35.3125,18.7969 34.0938,18.7969 C32.0469,18.7969 29.6406,20.625 29.6406,23.9375 C29.6406,26.875 31.4063,29.2656 34.4063,29.2656 C36.8438,29.2656 38.5469,27.6406 39.1406,27.0625 L38.1563,25.9688 Z "/><text fill="#000000" font-size="12" lengthAdjust="spacingAndGlyphs" textLength="89.0" x="48.75" y="29.015625">CsvExpression</text><line style="stroke: #A80036; stroke-width: 1.5;" x1="19.75" x2="140.75" y1="40.0" y2="40.0"/><line style="stroke: #A80036; stroke-width: 1.5;" x1="19.75" x2="140.75" y1="48.0" y2="48.0"/><rect fill="#FEFECE" filter="url(#f1)" height="48.0" style="stroke: #A80036; stroke-width: 1.5;" width="148.0" x="6.0" y="116.0"/><ellipse cx="21.0" cy="132.0" fill="#ADD1B2" rx="11.0" ry="11.0" style="stroke: #A80036; stroke-width: 1.0;"/><path d="M24.4063,133.9688 C23.6875,134.6406 22.3906,135.8125 20.6406,135.8125 C18.4219,135.8125 17.4531,133.875 17.4531,131.9219 C17.4531,129.5313 18.9375,128.2656 20.5781,128.2656 C22.5938,128.2656 22.8125,129.7813 22.9844,130.875 L24.4063,130.6875 C24.3125,130.1094 24.2344,129.5313 24.2344,128.5625 C24.2344,127.8906 24.2813,127.3438 24.3125,126.9219 L22.9063,126.9219 L22.7969,127.875 C22.2031,127.3438 21.5625,126.7969 20.3438,126.7969 C18.2969,126.7969 15.8906,128.625 15.8906,131.9375 C15.8906,134.875 17.6563,137.2656 20.6563,137.2656 C23.0938,137.2656 24.7969,135.6406 25.3906,135.0625 L24.4063,133.9688 Z "/><text fill="#000000" font-size="12" lengthAdjust="spacingAndGlyphs" textLength="116.0" x="35.0" y="137.015625">CsvExpressionSum</text><line style="stroke: #A80036; stroke-width: 1.5;" x1="6.0" x2="154.0" y1="148.0" y2="148.0"/><line style="stroke: #A80036; stroke-width: 1.5;" x1="6.0" x2="154.0" y1="156.0" y2="156.0"/><path d="M80,76.0236 C80,89.5792 80,104.0381 80,115.6784 " fill="none" style="stroke: #A80036; stroke-width: 1.0;"/><polygon fill="none" points="73.0001,76.0005,80.0,56.0,87.0001,76.0004,73.0001,76.0005" style="stroke: #A80036; stroke-width: 1.0;"/></g></svg>