<?xml version="1.0" encoding="UTF-8" standalone="yes"?><svg xmlns="http://www.w3.org/2000/svg" xmlns:xlink="http://www.w3.org/1999/xlink" height="198pt" style="width:137px;height:198px;" version="1.1" viewBox="0 0 137 198" width="137pt"><defs><filter height="300%" id="f1" width="300%" x="-1" y="-1"><feGaussianBlur result="blurOut" stdDeviation="2"/><feColorMatrix in="blurOut" result="blurOut2" type="matrix" values="0 0 0 0 0 0 0 0 0 0 0 0 0 0 0 0 0 0 .4 0"/><feOffset dx="4" dy="4" in="blurOut2" result="blurOut3"/><feBlend in="SourceGraphic" in2="blurOut3" mode="normal"/></filter></defs><g><rect fill="#FEFECE" filter="url(#f1)" height="48.0" style="stroke: #A80036; stroke-width: 1.5;" width="101.0" x="16.75" y="8.0"/><ellipse cx="31.75" cy="24.0" fill="#ADD1B2" rx="11.0" ry="11.0" style="stroke: #A80036; stroke-width: 1.0;"/><path d="M35.1563,25.9688 C34.4375,26.6406 33.1406,27.8125 31.3906,27.8125 C29.1719,27.8125 28.2031,25.875 28.2031,23.9219 C28.2031,21.5313 29.6875,20.2656 31.3281,20.2656 C33.3438,20.2656 33.5625,21.7813 33.7344,22.875 L35.1563,22.6875 C35.0625,22.1094 34.9844,21.5313 34.9844,20.5625 C34.9844,19.8906 35.0313,19.3438 35.0625,18.9219 L33.6563,18.9219 L33.5469,19.875 C32.9531,19.3438 32.3125,18.7969 31.0938,18.7969 C29.0469,18.7969 26.6406,20.625 26.6406,23.9375 C26.6406,26.875 28.4063,29.2656 31.4063,29.2656 C33.8438,29.2656 35.5469,27.6406 36.1406,27.0625 L35.1563,25.9688 Z "/><text fill="#000000" font-size="12" lengthAdjust="spacingAndGlyphs" textLength="69.0" x="45.75" y="29.015625">IperfParser</text><line style="stroke: #A80036; stroke-width: 1.5;" x1="16.75" x2="117.75" y1="40.0" y2="40.0"/><line style="stroke: #A80036; stroke-width: 1.5;" x1="16.75" x2="117.75" y1="48.0" y2="48.0"/><rect fill="#FEFECE" filter="url(#f1)" height="73.609375" style="stroke: #A80036; stroke-width: 1.5;" width="123.0" x="5.75" y="116.0"/><ellipse cx="31.1" cy="132.0" fill="#ADD1B2" rx="11.0" ry="11.0" style="stroke: #A80036; stroke-width: 1.0;"/><path d="M34.5063,133.9688 C33.7875,134.6406 32.4906,135.8125 30.7406,135.8125 C28.5219,135.8125 27.5531,133.875 27.5531,131.9219 C27.5531,129.5313 29.0375,128.2656 30.6781,128.2656 C32.6938,128.2656 32.9125,129.7813 33.0844,130.875 L34.5063,130.6875 C34.4125,130.1094 34.3344,129.5313 34.3344,128.5625 C34.3344,127.8906 34.3813,127.3438 34.4125,126.9219 L33.0063,126.9219 L32.8969,127.875 C32.3031,127.3438 31.6625,126.7969 30.4438,126.7969 C28.3969,126.7969 25.9906,128.625 25.9906,131.9375 C25.9906,134.875 27.7563,137.2656 30.7563,137.2656 C33.1938,137.2656 34.8969,135.6406 35.4906,135.0625 L34.5063,133.9688 Z "/><text fill="#000000" font-size="12" lengthAdjust="spacingAndGlyphs" textLength="68.0" x="47.4" y="137.015625">SumParser</text><line style="stroke: #A80036; stroke-width: 1.5;" x1="5.75" x2="128.75" y1="148.0" y2="148.0"/><text fill="#000000" font-size="11" lengthAdjust="spacingAndGlyphs" textLength="111.0" x="11.75" y="163.0">last_line_bandwidth</text><line style="stroke: #A80036; stroke-width: 1.5;" x1="5.75" x2="128.75" y1="168.8046875" y2="168.8046875"/><text fill="#000000" font-size="11" lengthAdjust="spacingAndGlyphs" textLength="71.0" x="11.75" y="183.8046875">__call__(line)</text><path d="M67,76.433 C67,89.332 67,103.3199 67,115.714 " fill="none" style="stroke: #A80036; stroke-width: 1.0;"/><polygon fill="none" points="60.0001,76.227,67.0,56.227000000000004,74.0001,76.227,60.0001,76.227" style="stroke: #A80036; stroke-width: 1.0;"/></g></svg>