<?xml version="1.0" encoding="UTF-8" standalone="yes"?><svg xmlns="http://www.w3.org/2000/svg" xmlns:xlink="http://www.w3.org/1999/xlink" height="173pt" style="width:185px;height:173px;" version="1.1" viewBox="0 0 185 173" width="185pt"><defs><filter height="300%" id="f1" width="300%" x="-1" y="-1"><feGaussianBlur result="blurOut" stdDeviation="2"/><feColorMatrix in="blurOut" result="blurOut2" type="matrix" values="0 0 0 0 0 0 0 0 0 0 0 0 0 0 0 0 0 0 .4 0"/><feOffset dx="4" dy="4" in="blurOut2" result="blurOut3"/><feBlend in="SourceGraphic" in2="blurOut3" mode="normal"/></filter></defs><g><rect fill="#FEFECE" filter="url(#f1)" height="48.0" style="stroke: #A80036; stroke-width: 1.5;" width="144.0" x="19.0" y="8.0"/><ellipse cx="34.0" cy="24.0" fill="#ADD1B2" rx="11.0" ry="11.0" style="stroke: #A80036; stroke-width: 1.0;"/><path d="M37.4063,25.9688 C36.6875,26.6406 35.3906,27.8125 33.6406,27.8125 C31.4219,27.8125 30.4531,25.875 30.4531,23.9219 C30.4531,21.5313 31.9375,20.2656 33.5781,20.2656 C35.5938,20.2656 35.8125,21.7813 35.9844,22.875 L37.4063,22.6875 C37.3125,22.1094 37.2344,21.5313 37.2344,20.5625 C37.2344,19.8906 37.2813,19.3438 37.3125,18.9219 L35.9063,18.9219 L35.7969,19.875 C35.2031,19.3438 34.5625,18.7969 33.3438,18.7969 C31.2969,18.7969 28.8906,20.625 28.8906,23.9375 C28.8906,26.875 30.6563,29.2656 33.6563,29.2656 C36.0938,29.2656 37.7969,27.6406 38.3906,27.0625 L37.4063,25.9688 Z "/><text fill="#000000" font-size="12" lengthAdjust="spacingAndGlyphs" textLength="112.0" x="48.0" y="29.015625">HumanExpression</text><line style="stroke: #A80036; stroke-width: 1.5;" x1="19.0" x2="163.0" y1="40.0" y2="40.0"/><line style="stroke: #A80036; stroke-width: 1.5;" x1="19.0" x2="163.0" y1="48.0" y2="48.0"/><rect fill="#FEFECE" filter="url(#f1)" height="48.0" style="stroke: #A80036; stroke-width: 1.5;" width="171.0" x="5.75" y="116.0"/><ellipse cx="20.75" cy="132.0" fill="#ADD1B2" rx="11.0" ry="11.0" style="stroke: #A80036; stroke-width: 1.0;"/><path d="M24.1563,133.9688 C23.4375,134.6406 22.1406,135.8125 20.3906,135.8125 C18.1719,135.8125 17.2031,133.875 17.2031,131.9219 C17.2031,129.5313 18.6875,128.2656 20.3281,128.2656 C22.3438,128.2656 22.5625,129.7813 22.7344,130.875 L24.1563,130.6875 C24.0625,130.1094 23.9844,129.5313 23.9844,128.5625 C23.9844,127.8906 24.0313,127.3438 24.0625,126.9219 L22.6563,126.9219 L22.5469,127.875 C21.9531,127.3438 21.3125,126.7969 20.0938,126.7969 C18.0469,126.7969 15.6406,128.625 15.6406,131.9375 C15.6406,134.875 17.4063,137.2656 20.4063,137.2656 C22.8438,137.2656 24.5469,135.6406 25.1406,135.0625 L24.1563,133.9688 Z "/><text fill="#000000" font-size="12" lengthAdjust="spacingAndGlyphs" textLength="139.0" x="34.75" y="137.015625">HumanExpressionSum</text><line style="stroke: #A80036; stroke-width: 1.5;" x1="5.75" x2="176.75" y1="148.0" y2="148.0"/><line style="stroke: #A80036; stroke-width: 1.5;" x1="5.75" x2="176.75" y1="156.0" y2="156.0"/><path d="M91,76.0236 C91,89.5792 91,104.0381 91,115.6784 " fill="none" style="stroke: #A80036; stroke-width: 1.0;"/><polygon fill="none" points="84.0001,76.0005,91.0,56.0,98.0001,76.0004,84.0001,76.0005" style="stroke: #A80036; stroke-width: 1.0;"/></g></svg>