<?xml version="1.0" encoding="UTF-8" standalone="yes"?><svg xmlns="http://www.w3.org/2000/svg" xmlns:xlink="http://www.w3.org/1999/xlink" height="204pt" style="width:135px;height:204px;" version="1.1" viewBox="0 0 135 204" width="135pt"><defs><filter height="300%" id="f1" width="300%" x="-1" y="-1"><feGaussianBlur result="blurOut" stdDeviation="2"/><feColorMatrix in="blurOut" result="blurOut2" type="matrix" values="0 0 0 0 0 0 0 0 0 0 0 0 0 0 0 0 0 0 .4 0"/><feOffset dx="4" dy="4" in="blurOut2" result="blurOut3"/><feBlend in="SourceGraphic" in2="blurOut3" mode="normal"/></filter></defs><g><polygon fill="#FFFFFF" filter="url(#f1)" points="22.0,86.0,86.0,86.0,93.0,108.296875,128.0,108.296875,128.0,197.0,22.0,197.0,22.0,86.0" style="stroke: #000000; stroke-width: 2.0;"/><line style="stroke: #000000; stroke-width: 2.0;" x1="22.0" x2="93.0" y1="108.296875" y2="108.296875"/><text fill="#000000" font-size="14" font-weight="bold" lengthAdjust="spacingAndGlyphs" textLength="58.0" x="25.0" y="103.0">logging</text><rect fill="#FEFECE" filter="url(#f1)" height="48.0" style="stroke: #A80036; stroke-width: 1.5;" width="75.0" x="37.75" y="133.0"/><ellipse cx="52.75" cy="149.0" fill="#ADD1B2" rx="11.0" ry="11.0" style="stroke: #A80036; stroke-width: 1.0;"/><path d="M56.1563,150.9688 C55.4375,151.6406 54.1406,152.8125 52.3906,152.8125 C50.1719,152.8125 49.2031,150.875 49.2031,148.9219 C49.2031,146.5313 50.6875,145.2656 52.3281,145.2656 C54.3438,145.2656 54.5625,146.7813 54.7344,147.875 L56.1563,147.6875 C56.0625,147.1094 55.9844,146.5313 55.9844,145.5625 C55.9844,144.8906 56.0313,144.3438 56.0625,143.9219 L54.6563,143.9219 L54.5469,144.875 C53.9531,144.3438 53.3125,143.7969 52.0938,143.7969 C50.0469,143.7969 47.6406,145.625 47.6406,148.9375 C47.6406,151.875 49.4063,154.2656 52.4063,154.2656 C54.8438,154.2656 56.5469,152.6406 57.1406,152.0625 L56.1563,150.9688 Z "/><text fill="#000000" font-size="12" lengthAdjust="spacingAndGlyphs" textLength="43.0" x="66.75" y="154.015625">Logger</text><line style="stroke: #A80036; stroke-width: 1.5;" x1="37.75" x2="112.75" y1="165.0" y2="165.0"/><line style="stroke: #A80036; stroke-width: 1.5;" x1="37.75" x2="112.75" y1="173.0" y2="173.0"/><rect fill="#FEFECE" filter="url(#f1)" height="60.8046875" style="stroke: #A80036; stroke-width: 1.5;" width="96.0" x="27.0" y="8.5"/><ellipse cx="42.0" cy="24.5" fill="#ADD1B2" rx="11.0" ry="11.0" style="stroke: #A80036; stroke-width: 1.0;"/><path d="M45.4063,26.4688 C44.6875,27.1406 43.3906,28.3125 41.6406,28.3125 C39.4219,28.3125 38.4531,26.375 38.4531,24.4219 C38.4531,22.0313 39.9375,20.7656 41.5781,20.7656 C43.5938,20.7656 43.8125,22.2813 43.9844,23.375 L45.4063,23.1875 C45.3125,22.6094 45.2344,22.0313 45.2344,21.0625 C45.2344,20.3906 45.2813,19.8438 45.3125,19.4219 L43.9063,19.4219 L43.7969,20.375 C43.2031,19.8438 42.5625,19.2969 41.3438,19.2969 C39.2969,19.2969 36.8906,21.125 36.8906,24.4375 C36.8906,27.375 38.6563,29.7656 41.6563,29.7656 C44.0938,29.7656 45.7969,28.1406 46.3906,27.5625 L45.4063,26.4688 Z "/><text fill="#000000" font-size="12" lengthAdjust="spacingAndGlyphs" textLength="64.0" x="56.0" y="29.515625">BaseClass</text><line style="stroke: #A80036; stroke-width: 1.5;" x1="27.0" x2="123.0" y1="40.5" y2="40.5"/><text fill="#000000" font-size="11" lengthAdjust="spacingAndGlyphs" textLength="39.0" x="33.0" y="55.5">Logger</text><line style="stroke: #A80036; stroke-width: 1.5;" x1="27.0" x2="123.0" y1="61.3046875" y2="61.3046875"/><path d="M75,81.619 C75,98.803 75,118.0762 75,132.6979 " fill="none" style="stroke: #A80036; stroke-width: 1.0;"/><polygon fill="none" points="75.0,69.572,70.80005,75.572035,75.0001,81.572,79.20005,75.571965" style="stroke: #A80036; stroke-width: 1.0;"/></g></svg>