<?xml version="1.0" encoding="UTF-8" standalone="yes"?><svg xmlns="http://www.w3.org/2000/svg" xmlns:xlink="http://www.w3.org/1999/xlink" height="204pt" style="width:195px;height:204px;" version="1.1" viewBox="0 0 195 204" width="195pt"><defs><filter height="300%" id="f1" width="300%" x="-1" y="-1"><feGaussianBlur result="blurOut" stdDeviation="2"/><feColorMatrix in="blurOut" result="blurOut2" type="matrix" values="0 0 0 0 0 0 0 0 0 0 0 0 0 0 0 0 0 0 .4 0"/><feOffset dx="4" dy="4" in="blurOut2" result="blurOut3"/><feBlend in="SourceGraphic" in2="blurOut3" mode="normal"/></filter></defs><g><polygon fill="#FFFFFF" filter="url(#f1)" points="22.0,86.0,99.0,86.0,106.0,108.296875,188.0,108.296875,188.0,197.0,22.0,197.0,22.0,86.0" style="stroke: #000000; stroke-width: 2.0;"/><line style="stroke: #000000; stroke-width: 2.0;" x1="22.0" x2="106.0" y1="108.296875" y2="108.296875"/><text fill="#000000" font-size="14" font-weight="bold" lengthAdjust="spacingAndGlyphs" textLength="71.0" x="25.0" y="103.0">argparse</text><rect fill="#FEFECE" filter="url(#f1)" height="48.0" style="stroke: #A80036; stroke-width: 1.5;" width="134.0" x="38.0" y="133.0"/><ellipse cx="53.0" cy="149.0" fill="#ADD1B2" rx="11.0" ry="11.0" style="stroke: #A80036; stroke-width: 1.0;"/><path d="M56.4063,150.9688 C55.6875,151.6406 54.3906,152.8125 52.6406,152.8125 C50.4219,152.8125 49.4531,150.875 49.4531,148.9219 C49.4531,146.5313 50.9375,145.2656 52.5781,145.2656 C54.5938,145.2656 54.8125,146.7813 54.9844,147.875 L56.4063,147.6875 C56.3125,147.1094 56.2344,146.5313 56.2344,145.5625 C56.2344,144.8906 56.2813,144.3438 56.3125,143.9219 L54.9063,143.9219 L54.7969,144.875 C54.2031,144.3438 53.5625,143.7969 52.3438,143.7969 C50.2969,143.7969 47.8906,145.625 47.8906,148.9375 C47.8906,151.875 49.6563,154.2656 52.6563,154.2656 C55.0938,154.2656 56.7969,152.6406 57.3906,152.0625 L56.4063,150.9688 Z "/><text fill="#000000" font-size="12" lengthAdjust="spacingAndGlyphs" textLength="102.0" x="67.0" y="154.015625">ArgumentParser</text><line style="stroke: #A80036; stroke-width: 1.5;" x1="38.0" x2="172.0" y1="165.0" y2="165.0"/><line style="stroke: #A80036; stroke-width: 1.5;" x1="38.0" x2="172.0" y1="173.0" y2="173.0"/><rect fill="#FEFECE" filter="url(#f1)" height="60.8046875" style="stroke: #A80036; stroke-width: 1.5;" width="156.0" x="27.0" y="8.5"/><ellipse cx="67.2" cy="24.5" fill="#ADD1B2" rx="11.0" ry="11.0" style="stroke: #A80036; stroke-width: 1.0;"/><path d="M70.6063,26.4688 C69.8875,27.1406 68.5906,28.3125 66.8406,28.3125 C64.6219,28.3125 63.6531,26.375 63.6531,24.4219 C63.6531,22.0313 65.1375,20.7656 66.7781,20.7656 C68.7938,20.7656 69.0125,22.2813 69.1844,23.375 L70.6063,23.1875 C70.5125,22.6094 70.4344,22.0313 70.4344,21.0625 C70.4344,20.3906 70.4813,19.8438 70.5125,19.4219 L69.1063,19.4219 L68.9969,20.375 C68.4031,19.8438 67.7625,19.2969 66.5438,19.2969 C64.4969,19.2969 62.0906,21.125 62.0906,24.4375 C62.0906,27.375 63.8563,29.7656 66.8563,29.7656 C69.2938,29.7656 70.9969,28.1406 71.5906,27.5625 L70.6063,26.4688 Z "/><text fill="#000000" font-size="12" lengthAdjust="spacingAndGlyphs" textLength="68.0" x="86.8" y="29.515625">Arguments</text><line style="stroke: #A80036; stroke-width: 1.5;" x1="27.0" x2="183.0" y1="40.5" y2="40.5"/><line style="stroke: #A80036; stroke-width: 1.5;" x1="27.0" x2="183.0" y1="48.5" y2="48.5"/><text fill="#000000" font-size="11" lengthAdjust="spacingAndGlyphs" textLength="144.0" x="33.0" y="63.5">Namespace parse_args()</text><path d="M105,81.619 C105,98.803 105,118.0762 105,132.6979 " fill="none" style="stroke: #A80036; stroke-width: 1.0;"/><polygon fill="none" points="105.0,69.572,100.80002499999999,75.5720175,105.00005,81.572,109.200025,75.57198249999999" style="stroke: #A80036; stroke-width: 1.0;"/></g></svg>