<?xml version="1.0" encoding="UTF-8" standalone="yes"?><svg xmlns="http://www.w3.org/2000/svg" xmlns:xlink="http://www.w3.org/1999/xlink" height="173pt" style="width:138px;height:173px;" version="1.1" viewBox="0 0 138 173" width="138pt"><defs><filter height="300%" id="f1" width="300%" x="-1" y="-1"><feGaussianBlur result="blurOut" stdDeviation="2"/><feColorMatrix in="blurOut" result="blurOut2" type="matrix" values="0 0 0 0 0 0 0 0 0 0 0 0 0 0 0 0 0 0 .4 0"/><feOffset dx="4" dy="4" in="blurOut2" result="blurOut3"/><feBlend in="SourceGraphic" in2="blurOut3" mode="normal"/></filter></defs><g><rect fill="#FEFECE" filter="url(#f1)" height="48.0" style="stroke: #A80036; stroke-width: 1.5;" width="124.0" x="5.5" y="8.0"/><ellipse cx="20.5" cy="24.0" fill="#ADD1B2" rx="11.0" ry="11.0" style="stroke: #A80036; stroke-width: 1.0;"/><path d="M23.9063,25.9688 C23.1875,26.6406 21.8906,27.8125 20.1406,27.8125 C17.9219,27.8125 16.9531,25.875 16.9531,23.9219 C16.9531,21.5313 18.4375,20.2656 20.0781,20.2656 C22.0938,20.2656 22.3125,21.7813 22.4844,22.875 L23.9063,22.6875 C23.8125,22.1094 23.7344,21.5313 23.7344,20.5625 C23.7344,19.8906 23.7813,19.3438 23.8125,18.9219 L22.4063,18.9219 L22.2969,19.875 C21.7031,19.3438 21.0625,18.7969 19.8438,18.7969 C17.7969,18.7969 15.3906,20.625 15.3906,23.9375 C15.3906,26.875 17.1563,29.2656 20.1563,29.2656 C22.5938,29.2656 24.2969,27.6406 24.8906,27.0625 L23.9063,25.9688 Z "/><text fill="#000000" font-size="12" lengthAdjust="spacingAndGlyphs" textLength="92.0" x="34.5" y="29.015625">BaseConverter</text><line style="stroke: #A80036; stroke-width: 1.5;" x1="5.5" x2="129.5" y1="40.0" y2="40.0"/><line style="stroke: #A80036; stroke-width: 1.5;" x1="5.5" x2="129.5" y1="48.0" y2="48.0"/><rect fill="#FEFECE" filter="url(#f1)" height="48.0" style="stroke: #A80036; stroke-width: 1.5;" width="118.0" x="8.0" y="116.0"/><ellipse cx="23.0" cy="132.0" fill="#ADD1B2" rx="11.0" ry="11.0" style="stroke: #A80036; stroke-width: 1.0;"/><path d="M26.4063,133.9688 C25.6875,134.6406 24.3906,135.8125 22.6406,135.8125 C20.4219,135.8125 19.4531,133.875 19.4531,131.9219 C19.4531,129.5313 20.9375,128.2656 22.5781,128.2656 C24.5938,128.2656 24.8125,129.7813 24.9844,130.875 L26.4063,130.6875 C26.3125,130.1094 26.2344,129.5313 26.2344,128.5625 C26.2344,127.8906 26.2813,127.3438 26.3125,126.9219 L24.9063,126.9219 L24.7969,127.875 C24.2031,127.3438 23.5625,126.7969 22.3438,126.7969 C20.2969,126.7969 17.8906,128.625 17.8906,131.9375 C17.8906,134.875 19.6563,137.2656 22.6563,137.2656 C25.0938,137.2656 26.7969,135.6406 27.3906,135.0625 L26.4063,133.9688 Z "/><text fill="#000000" font-size="12" lengthAdjust="spacingAndGlyphs" textLength="86.0" x="37.0" y="137.015625">UnitConverter</text><line style="stroke: #A80036; stroke-width: 1.5;" x1="8.0" x2="126.0" y1="148.0" y2="148.0"/><line style="stroke: #A80036; stroke-width: 1.5;" x1="8.0" x2="126.0" y1="156.0" y2="156.0"/><path d="M67,76.0236 C67,89.5792 67,104.0381 67,115.6784 " fill="none" style="stroke: #A80036; stroke-width: 1.0;"/><polygon fill="none" points="60.0001,76.0005,67.0,56.0,74.0001,76.0004,60.0001,76.0005" style="stroke: #A80036; stroke-width: 1.0;"/></g></svg>